:SAMPLES-PER-SECOND 30
:FULLY-SPECIFIED
:DEGREES
16
root  80.0393 40.2473 28.8578 -165.413 -87.3212 166.402
RightUpLeg  -0.960143 -7.1488 -3.12832
RightLeg  5.29679 -2.64002 3.70833
RightFoot  -5.48363 0.117462 -3.01892
RightToes  5.82063e-011 0 -3.6325e-017
Spine  -18.2846 -18.1133 9.37925
Spine1  21.4024 -13.2933 -21.3643
HEad  -78.5861 2.18483 32.6338
LeftShoulder1  18.2543 -14.6348 -81.0964
LeftArm  23.0046 -44.2429 -71.2655
LeftForeArm  -20.3193 -80.8493 62.617
LeftHand  -0.244104 0.0205437 5.32207
RightShoulder  13.178 42.8501 21.2925
RightArm  -35.7035 -6.12807 23.386
RightForeArm  6.8389 1.40567 -1.86603
RightHand  -1.73728 5.05272 -19.4139
LeftUpLeg  1.65165 5.47397 2.16694
LeftLeg  0.828223 14.7461 -5.20322
LeftFoot  -4.30299 -0.0814896 1.74296
LeftToes  1.2005e-010 6.1915e-012 3.32694e-011
17
root  79.8403 40.244 28.7497 -165.608 -89.1684 166.479
RightUpLeg  0.179588 -6.81052 -2.56866
RightLeg  4.38762 -4.753 3.79491
RightFoot  -5.70958 0.108905 -2.99821
RightToes  5.82063e-011 0 -3.6325e-017
Spine  -22.2031 -20.3203 7.01048
Spine1  28.2822 -14.8035 -20.967
HEad  -79.1189 0.0468822 35.0595
LeftShoulder1  18.3322 -14.9816 -79.7409
LeftArm  -24.595 -35.065 -64.5359
LeftForeArm  -162.615 -35.6178 -165.874
LeftHand  -0.244104 0.0205437 5.32207
RightShoulder  14.9455 44.8041 23.3924
RightArm  -34.7894 -5.58785 27.7181
RightForeArm  9.76631 1.94179 -1.72521
RightHand  -1.42346 3.90173 -17.9333
LeftUpLeg  1.55548 5.63286 2.78799
LeftLeg  1.67018 12.75 -4.73417
LeftFoot  -4.73883 -0.0471839 1.32734
LeftToes  1.2005e-010 6.1915e-012 3.32694e-011
18
root  79.769 40.2322 28.6877 -157.781 -89.009 158.707
RightUpLeg  0.0223001 -6.85106 -2.58492
RightLeg  4.8251 -4.63241 3.66108
RightFoot  -6.09009 0.099625 -3.06999
RightToes  5.82063e-011 0 -3.6325e-017
Spine  -24.7566 -21.1572 1.69122
Spine1  39.8135 -13.8836 -18.9377
HEad  -85.7052 -0.230374 40.5541
LeftShoulder1  20.8346 -20.459 -74.9907
LeftArm  -80.9716 2.52115 -50.6371
LeftForeArm  138.152 -49.6595 -165.911
LeftHand  -0.244104 0.0205437 5.32207
RightShoulder  15.3258 43.008 29.9138
RightArm  -31.9537 2.52543 27.266
RightForeArm  11.1707 1.60063 -1.10319
RightHand  -1.16119 3.18584 -15.8284
LeftUpLeg  1.55376 5.38649 2.60329
LeftLeg  1.78321 13.066 -4.4871
LeftFoot  -4.86804 -0.0174865 0.907109
LeftToes  1.2005e-010 6.1915e-012 3.32694e-011
19
root  79.6493 40.2183 28.5934 -143.199 -89.2504 144.006
RightUpLeg  0.324036 -6.88389 -2.5669
RightLeg  4.97446 -4.92033 3.63936
RightFoot  -6.45549 0.0932416 -3.20709
RightToes  5.82063e-011 0 -3.6325e-017
Spine  -27.8277 0.0850805 7.58656
Spine1  47.0765 9.52414 -17.4289
HEad  -108.992 13.418 28.3854
LeftShoulder1  31.9425 -47.6018 -53.2506
LeftArm  -127.775 24.5242 -74.8747
LeftForeArm  108.149 -54.3641 -161.598
LeftHand  -0.244104 0.0205437 5.32207
RightShoulder  13.6247 13.5225 64.072
RightArm  -19.7645 5.37453 -4.79295
RightForeArm  -5.09681 3.83737 5.18487
RightHand  -0.779086 2.38483 -11.8072
LeftUpLeg  1.69869 5.27125 2.58952
LeftLeg  2.09372 12.8885 -4.22425
LeftFoot  -5.14068 -0.00519897 0.728625
LeftToes  1.2005e-010 6.1915e-012 3.32694e-011
20
root  79.4954 40.1973 28.4898 -134.439 -89.3042 135.15
RightUpLeg  0.583014 -6.94366 -2.51017
RightLeg  5.21559 -4.99828 3.63776
RightFoot  -6.84645 0.0832638 -3.29913
RightToes  5.82063e-011 0 -3.6325e-017
Spine  -30.3442 5.06322 10.4153
Spine1  44.5641 11.8773 -14.8099
HEad  -101.459 11.1133 20.0944
LeftShoulder1  36.6856 -62.2762 -46.2852
LeftArm  -144.579 22.5616 -93.8658
LeftForeArm  134.489 -46.2682 -167.194
LeftHand  -0.244104 0.0205437 5.32207
RightShoulder  12.7937 14.8754 60.2753
RightArm  -21.4839 -7.7732 3.94929
RightForeArm  -5.3817 6.79937 3.61385
RightHand  -0.504353 0.744499 -9.67882
LeftUpLeg  1.87412 5.40615 2.76757
LeftLeg  2.51376 12.6394 -4.17708
LeftFoot  -5.5785 0.00183916 0.626597
LeftToes  1.2005e-010 6.1915e-012 3.32694e-011
21
root  79.3116 40.1692 28.3767 -139.624 -89.0356 140.372
RightUpLeg  0.565705 -7.02393 -2.46394
RightLeg  5.74477 -4.72022 3.53942
RightFoot  -7.35124 0.0682547 -3.3854
RightToes  5.82063e-011 0 -3.6325e-017
Spine  -29.4062 6.51934 11.8082
Spine1  40.6697 12.1928 -14.2834
HEad  -102.106 -1.32329 26.1084
LeftShoulder1  36.654 -59.6727 -48.9311
LeftArm  -139.995 26.4519 -95.5219
LeftForeArm  147.174 -51.0324 -165.99
LeftHand  -0.244104 0.0205437 5.32207
RightShoulder  12.5238 14.66 59.7536
RightArm  -22.3436 -12.2008 10.3911
RightForeArm  -6.03319 7.16375 3.38546
RightHand  -0.356842 -0.462554 -8.42792
LeftUpLeg  1.93226 5.58152 2.94243
LeftLeg  3.0789 12.6039 -4.20587
LeftFoot  -6.12075 0.0318298 0.102726
LeftToes  1.2005e-010 6.1915e-012 3.32694e-011
22
root  79.1126 40.1178 28.2506 -148.257 -88.7427 149.052
RightUpLeg  0.441297 -7.06125 -2.27641
RightLeg  6.52361 -4.37281 3.3635
RightFoot  -8.03952 0.0473691 -3.52926
RightToes  5.82063e-011 0 -3.6325e-017
Spine  -24.1446 5.44697 13.2156
Spine1  32.158 9.66758 -14.0314
HEad  -99.3083 -4.60619 25.4216
LeftShoulder1  28.0139 -66.1046 -31.1872
LeftArm  -166.86 16.2628 -116.212
LeftForeArm  -133.177 -54.6376 -169.796
LeftHand  -0.244104 0.0205437 5.32207
RightShoulder  11.5214 14.5976 55.5296
RightArm  -21.3043 -16.2406 18.6942
RightForeArm  -3.40517 7.80358 3.66543
RightHand  -0.248503 -1.43575 -7.10176
LeftUpLeg  1.53836 5.79213 2.98241
LeftLeg  4.57491 12.7502 -3.54035
LeftFoot  -7.01019 0.0663248 -0.629809
LeftToes  1.2005e-010 6.1915e-012 3.32694e-011
23
root  78.9149 39.9948 28.1408 -167.763 -88.6879 168.367
RightUpLeg  0.339812 -7.1091 -1.74765
RightLeg  7.86579 -4.10073 3.23661
RightFoot  -9.11094 0.00887771 -3.61298
RightToes  5.82063e-011 0 -3.6325e-017
Spine  -21.3946 5.91855 18.4387
Spine1  32.5499 12.0005 -18.9506
HEad  -104.886 -11.238 30.8096
LeftShoulder1  26.8509 -58.3158 -35.4334
LeftArm  -155.114 22.3342 -106.407
LeftForeArm  -133.973 -53.6147 -169.898
LeftHand  -0.244104 0.0205437 5.32207
RightShoulder  10.8501 12.8019 57.7891
RightArm  -20.596 -11.8823 24.3654
RightForeArm  -2.99001 7.19074 4.21643
RightHand  -0.137802 -2.55793 -5.22941
LeftUpLeg  0.379348 8.20422 3.282
LeftLeg  8.1709 10.8093 -1.88343
LeftFoot  -8.69386 0.0719209 -0.840295
LeftToes  1.2005e-010 6.1915e-012 3.32694e-011
24
root  78.7221 39.8127 28.0758 161.242 -88.5967 -161.078
RightUpLeg  0.340922 -7.43274 -1.04898
RightLeg  9.63584 -3.6943 3.23871
RightFoot  -10.4239 -0.0417419 -3.57634
RightToes  5.82063e-011 0 -3.6325e-017
Spine  -21.1809 5.07724 21.7717
Spine1  33.4902 12.3649 -22.1286
HEad  -105.452 -10.1124 32.2745
LeftShoulder1  27.878 -49.6416 -44.3267
LeftArm  -148.129 24.8229 -98.2685
LeftForeArm  -127.213 -47.3181 -172.551
LeftHand  -0.244104 0.0205437 5.32207
RightShoulder  11.8481 13.6877 59.7301
RightArm  -20.4935 -9.78095 28.8245
RightForeArm  -7.86906 5.64678 4.58388
RightHand  -0.0943221 -3.6346 -5.23144
LeftUpLeg  -1.55597 12.3372 3.54577
LeftLeg  13.5329 6.83437 0.774577
LeftFoot  -10.5266 0.0720465 -1.60033
LeftToes  1.2005e-010 6.1915e-012 3.32694e-011
25
root  78.5235 39.6332 28.0373 139.455 -88.4356 -139.823
RightUpLeg  0.47051 -8.08331 -0.639444
RightLeg  11.4461 -3.20502 3.26344
RightFoot  -11.7473 -0.0918862 -3.5159
RightToes  5.82063e-011 0 -3.6325e-017
Spine  -19.5843 5.2599 22.9496
Spine1  32.8251 12.3297 -21.487
HEad  -101.873 -7.37868 29.284
LeftShoulder1  25.6813 -48.5981 -41.5545
LeftArm  -143.776 23.5882 -98.7262
LeftForeArm  -123.209 -47.7354 -172.498
LeftHand  -0.244104 0.0205437 5.32207
RightShoulder  11.7512 13.4041 60.1878
RightArm  -21.4973 -10.9199 29.6705
RightForeArm  -15.6769 6.44222 4.93391
RightHand  -0.163592 -3.235 -7.8446
LeftUpLeg  -4.04694 12.2012 3.65501
LeftLeg  19.7484 6.43403 3.071
LeftFoot  -10.9972 0.0821419 -4.04017
LeftToes  1.2005e-010 6.1915e-012 3.32694e-011
26
root  78.3099 39.4922 27.9758 128.092 -88.7016 -128.769
RightUpLeg  0.478464 -8.79757 -0.709618
RightLeg  13.1022 -2.94727 3.19201
RightFoot  -13.0414 -0.139451 -3.46078
RightToes  5.82063e-011 0 -3.6325e-017
Spine  -14.7947 4.01056 22.803
Spine1  26.4217 10.5052 -20.7727
HEad  -85.8057 2.19649 20.0743
LeftShoulder1  24.9411 -41.1048 -48.5089
LeftArm  -136.893 28.0532 -91.6187
LeftForeArm  -121.216 -47.6231 -172.591
LeftHand  -0.244104 0.0205437 5.32207
RightShoulder  11.6487 13.2713 60.0519
RightArm  -19.7468 -14.7227 27.1364
RightForeArm  -13.7049 8.3617 5.27935
RightHand  -0.318937 -1.63841 -9.8315
LeftUpLeg  -7.38809 8.90975 3.54812
LeftLeg  26.9991 8.95491 5.2679
LeftFoot  -9.14462 0.18896 -6.82934
LeftToes  1.2005e-010 6.1915e-012 3.32694e-011
27
root  78.0574 39.3819 27.8794 122.585 -89.2348 -123.202
RightUpLeg  0.27304 -9.35522 -1.047
RightLeg  14.4703 -2.81269 3.1114
RightFoot  -14.2809 -0.182233 -3.342
RightToes  5.82063e-011 0 -3.6325e-017
Spine  -3.40621 1.18182 16.3496
Spine1  11.585 4.054 -10.9106
HEad  -82.3142 1.21277 13.5771
LeftShoulder1  23.1419 -29.3438 -60.4976
LeftArm  -126.995 33.0626 -80.7017
LeftForeArm  -121.111 -48.2123 -172.409
LeftHand  -0.244104 0.0205437 5.32207
RightShoulder  8.71044 12.0556 48.8171
RightArm  -14.0593 -22.1572 29.6106
RightForeArm  -0.941964 12.1408 5.63132
RightHand  -0.27531 -2.05932 -9.24788
LeftUpLeg  -11.6062 6.86515 3.00132
LeftLeg  34.644 10.3313 7.93024
LeftFoot  -5.44159 0.399642 -7.28796
LeftToes  1.2005e-010 6.1915e-012 3.32694e-011
